<svg xmlns="http://www.w3.org/2000/svg" viewBox="0 0 200 200">
  <defs>
    <linearGradient id="jar" x1="0%" y1="0%" x2="100%" y2="100%">
      <stop offset="0%" style="stop-color:#4a7c3f;stop-opacity:0.85"/>
      <stop offset="100%" style="stop-color:#2e5a1e;stop-opacity:0.9"/>
    </linearGradient>
  </defs>
  <rect x="50" y="60" width="100" height="110" rx="8" fill="url(#jar)" stroke="#2e5a1e" stroke-width="2"/>
  <rect x="45" y="48" width="110" height="18" rx="4" fill="#c0392b" stroke="#962d22" stroke-width="2"/>
  <rect x="55" y="42" width="90" height="10" rx="3" fill="#e74c3c"/>
  <!-- Gongura leaves -->
  <path d="M80 90 Q75 80 85 78 Q90 82 85 90Z" fill="#6ab04c" opacity="0.9"/>
  <path d="M105 100 Q100 88 112 87 Q115 93 108 102Z" fill="#78e08f" opacity="0.8"/>
  <path d="M90 120 Q84 110 96 108 Q100 114 93 122Z" fill="#6ab04c" opacity="0.85"/>
  <path d="M75 135 Q70 125 82 122 Q85 128 78 136Z" fill="#78e08f" opacity="0.7"/>
  <!-- Chili flakes -->
  <circle cx="115" cy="125" r="3" fill="#e74c3c" opacity="0.6"/>
  <circle cx="108" cy="138" r="2" fill="#c0392b" opacity="0.5"/>
  <rect x="60" y="145" width="80" height="18" rx="3" fill="white" opacity="0.9"/>
  <text x="100" y="158" text-anchor="middle" font-family="Arial" font-size="8" font-weight="bold" fill="#2e5a1e">GONGURA PICKLE</text>
</svg>
