<svg xmlns="http://www.w3.org/2000/svg" viewBox="0 0 200 200">
  <defs>
    <linearGradient id="jar" x1="0%" y1="0%" x2="100%" y2="100%">
      <stop offset="0%" style="stop-color:#ff8a65;stop-opacity:0.9"/>
      <stop offset="100%" style="stop-color:#e64a19;stop-opacity:0.85"/>
    </linearGradient>
  </defs>
  <rect x="50" y="60" width="100" height="110" rx="8" fill="url(#jar)" stroke="#bf360c" stroke-width="2"/>
  <rect x="45" y="48" width="110" height="18" rx="4" fill="#1565c0" stroke="#0d47a1" stroke-width="2"/>
  <rect x="55" y="42" width="90" height="10" rx="3" fill="#1e88e5"/>
  <!-- Prawns -->
  <path d="M75 95 Q70 88 80 85 Q88 88 85 95 Q80 100 75 95Z" fill="#ff7043" stroke="#e64a19" stroke-width="1"/>
  <path d="M105 105 Q100 98 110 95 Q118 98 115 105 Q110 110 105 105Z" fill="#ff8a65" stroke="#e64a19" stroke-width="1"/>
  <path d="M85 125 Q80 118 90 115 Q98 118 95 125 Q90 130 85 125Z" fill="#ff7043" stroke="#e64a19" stroke-width="1"/>
  <!-- Spice oil -->
  <circle cx="95" cy="100" r="2" fill="#e74c3c" opacity="0.4"/>
  <circle cx="110" cy="120" r="1.5" fill="#e74c3c" opacity="0.4"/>
  <rect x="60" y="145" width="80" height="18" rx="3" fill="white" opacity="0.9"/>
  <text x="100" y="158" text-anchor="middle" font-family="Arial" font-size="8" font-weight="bold" fill="#bf360c">PRAWNS PICKLE</text>
</svg>
